# xmcd
#
# Track frame offsets:
#	150
#	13692
#	25211
#	41138
#	55678
#	70976
#	86730
#	98008
#	114113
#	129914
#	141574
#	153010
#	162195
#	176386
#	191055
#	205957
#	222374
#	234322
#	245764
#	260370
#	273750
#	287263
#	300143
#	317330
#	331699
#
# Disc length: 4615
#
# Revision: 1
# Processed by: cddbd v1.5.1PL0 Copyright (c) Steve Scherf et al.
# Submitted via: dBpowerAMP V4.0
# Normalized: r0:DSETVAR1,TDELIM( - )
#
DISCID=48120519
DTITLE=Various Artist - The Dutch Country Top 100 vol 1-1
DYEAR=1900
DGENRE=Country
TTITLE0=Major Dundee - The Longer The Distance
TTITLE1=Tulsa - All I Have To Do Is Dream
TTITLE2=Ben Steneker - Roll On Mississippi
TTITLE3=Frank Jansen - You're A Phone Call That I Need To Make
TTITLE4=Grant and Forsyth - Somewhere Between
TTITLE5=Hobo String Band - My Uncle
TTITLE6=Lafayette - Laissez Faire
TTITLE7=Savannah - Lay Down Beside Me
TTITLE8=Jany Szabo - Fools Like Me
TTITLE9=The Revival Band - Hey Tonight
TTITLE10=Tumbleweeds - Louisiana Man
TTITLE11=West Virginian Railroad - Deep In The Country
TTITLE12=Cash On Delivery and Wim VD Vliert - Addicted To You
TTITLE13=Sandra Vanreys - The French Song
TTITLE14=Busted - We All Get Lucky Sometimes
TTITLE15=Side Kick - I'm Staying With You
TTITLE16=Terry White - I Could Never Be Ashamed Of You
TTITLE17=Major Dundee (w. Flaco Jimenez) - Goin' Loco
TTITLE18=Colt '45 - Love Like A Hobo
TTITLE19=Desperado - Paint The Town Tonight
TTITLE20=Wim Pols and Calyx - Fly Back Home To You
TTITLE21=Mark Lavender - Just Call Me Lonesome
TTITLE22=Lee Towers - Help Me Make It Through The Night
TTITLE23=Early Bird - Mother Played The Dobro
TTITLE24=Ruud Hermans and Ilse De Lange - The Angels Rejoiced Last Night
EXTD=
EXTT0=
EXTT1=
EXTT2=
EXTT3=
EXTT4=
EXTT5=
EXTT6=
EXTT7=
EXTT8=
EXTT9=
EXTT10=
EXTT11=
EXTT12=
EXTT13=
EXTT14=
EXTT15=
EXTT16=
EXTT17=
EXTT18=
EXTT19=
EXTT20=
EXTT21=
EXTT22=
EXTT23=
EXTT24=
PLAYORDER=
